<?xml version="1.0" encoding="utf-8"?>
<!-- Generator: Adobe Illustrator 26.0.3, SVG Export Plug-In . SVG Version: 6.00 Build 0)  -->
<svg version="1.1" id="Слой_1" xmlns="http://www.w3.org/2000/svg" xmlns:xlink="http://www.w3.org/1999/xlink" x="0px" y="0px"
	 viewBox="0 0 642.1 707" style="enable-background:new 0 0 642.1 707;" xml:space="preserve">
<style type="text/css">
	.st0{fill:#4F71D1;}
</style>
<g>
	<g>
		<path class="st0" d="M14,335.9c268.5,0,302-302,302-302"/>
		<path class="st0" d="M618,335.9c-268.5,0-302-302-302-302"/>
	</g>
	<g>
		<path class="st0" d="M618,369.5c-268.5,0-302,302-302,302"/>
		<path class="st0" d="M14,369.5c268.5,0,302,302,302,302"/>
	</g>
</g>
<g>
	<g>
		<path class="st0" d="M14,335.9c268.5,0,302-302,302-302"/>
		<path class="st0" d="M618,335.9c-268.5,0-302-302-302-302"/>
	</g>
	<g>
		<path class="st0" d="M618,369.5c-268.5,0-302,302-302,302"/>
		<path class="st0" d="M14,369.5c268.5,0,302,302,302,302"/>
	</g>
</g>
<g>
	<path d="M145.9,370.2c82-82,171-19.2,171-19.2"/>
	<path d="M486.1,370.2c-82-82-171-19.2-171-19.2"/>
</g>
<path d="M318.5,349.1c0,0-60.4,31.7-47.5,121.3l4-6.6l6.6,4c0,0-21.8-87.5,43.5-117.3"/>
</svg>
